<?xml version="1.0" encoding="UTF-8"?>
<!DOCTYPE svg PUBLIC "-//W3C//DTD SVG 1.1//EN" "http://www.w3.org/Graphics/SVG/1.1/DTD/svg11.dtd">
<svg xmlns="http://www.w3.org/2000/svg" version="1.1" width="184px" height="59px" style="shape-rendering:geometricPrecision; text-rendering:geometricPrecision; image-rendering:optimizeQuality; fill-rule:evenodd; clip-rule:evenodd" xmlns:xlink="http://www.w3.org/1999/xlink">
<g><path style="opacity:0.997" fill="#28518e" d="M 35.5,6.5 C 35.9169,5.87605 36.5836,5.54272 37.5,5.5C 44.4718,6.74636 51.4718,7.74636 58.5,8.5C 59.672,14.1888 61.0053,19.8555 62.5,25.5C 58.2864,29.9533 53.6197,33.9533 48.5,37.5C 44.3388,26.9946 40.0055,16.6613 35.5,6.5 Z"/></g>
<g><path style="opacity:1" fill="#11213c" d="M 23.5,3.5 C 24.0967,3.7352 24.4301,4.2352 24.5,5C 19.6667,17.5 14.8333,30 10,42.5C 7.20025,35.2674 4.70025,27.9341 2.5,20.5C 9.75316,15.054 16.7532,9.38735 23.5,3.5 Z"/></g>
<g><path style="opacity:0.987" fill="#1a355e" d="M 29.5,14.5 C 32.7177,20.1138 35.3844,26.1138 37.5,32.5C 32.533,33.6623 27.533,33.8289 22.5,33C 25.13,26.9431 27.4633,20.7765 29.5,14.5 Z"/></g>
<g><path style="opacity:0.686" fill="#fefffe" d="M 71.5,23.5 C 72.9778,23.238 74.3112,23.5713 75.5,24.5C 78.0976,30.4595 80.5976,36.4595 83,42.5C 83.499,38.1794 83.6657,33.8461 83.5,29.5C 85.1667,29.5 86.8333,29.5 88.5,29.5C 87.9063,37.1018 89.2397,37.4351 92.5,30.5C 94.0453,29.5481 95.712,29.2148 97.5,29.5C 97.5,34.5 97.5,39.5 97.5,44.5C 96.1667,44.5 94.8333,44.5 93.5,44.5C 93.6641,41.8127 93.4974,39.146 93,36.5C 91.5301,39.7964 89.3634,42.4631 86.5,44.5C 83.8333,44.1667 81.1667,43.8333 78.5,43.5C 77.7542,42.2638 77.4208,40.9305 77.5,39.5C 74.7531,39.1866 72.0865,39.52 69.5,40.5C 68.7542,41.7362 68.4208,43.0695 68.5,44.5C 66.712,44.7852 65.0453,44.4519 63.5,43.5C 66.1822,36.8077 68.8489,30.141 71.5,23.5 Z M 72.5,31.5 C 74.332,32.1405 74.6653,33.1405 73.5,34.5C 72.6143,33.675 72.281,32.675 72.5,31.5 Z"/></g>
<g><path style="opacity:0.704" fill="#fefffe" d="M 123.5,23.5 C 126.166,23.0658 127.333,24.0658 127,26.5C 124.51,27.743 122.01,28.9096 119.5,30C 128.486,30.48 130.819,34.6466 126.5,42.5C 122.559,45.344 118.893,45.0107 115.5,41.5C 114.499,38.8275 113.499,36.1608 112.5,33.5C 111.152,35.4613 109.819,35.6279 108.5,34C 105.763,32.9202 104.096,33.7536 103.5,36.5C 104.604,40.8061 106.77,41.4727 110,38.5C 113.797,38.9206 114.297,40.2539 111.5,42.5C 104.558,46.1959 100.224,44.1959 98.5,36.5C 100.039,29.9562 104.039,27.7895 110.5,30C 111.354,31.0217 112.354,31.8551 113.5,32.5C 115.015,27.3114 118.348,24.3114 123.5,23.5 Z M 119.5,34.5 C 123.909,33.899 125.242,35.5657 123.5,39.5C 122.167,40.8333 120.833,40.8333 119.5,39.5C 118.334,37.8327 118.334,36.166 119.5,34.5 Z"/></g>
<g><path style="opacity:0.525" fill="#fefffe" d="M 87.5,24.5 C 89.8706,25.3425 92.2039,25.6758 94.5,25.5C 93.0319,28.4203 90.8652,29.087 88,27.5C 87.5172,26.552 87.3505,25.552 87.5,24.5 Z"/></g>
<g><path style="opacity:0.684" fill="#fefffe" d="M 133.5,29.5 C 141.117,27.7895 144.784,30.7895 144.5,38.5C 140.944,38.2749 140.61,39.1082 143.5,41C 136.648,46.5915 131.981,45.0915 129.5,36.5C 130.094,33.692 131.427,31.3587 133.5,29.5 Z M 136.5,32.5 C 137.756,32.4614 138.756,32.9614 139.5,34C 137.833,34.6667 136.167,34.6667 134.5,34C 135.416,33.7216 136.082,33.2216 136.5,32.5 Z M 134.5,39.5 C 136.288,38.3775 138.288,38.2109 140.5,39C 138.635,40.7998 136.635,40.9664 134.5,39.5 Z"/></g>
<g><path style="opacity:0.767" fill="#fefffe" d="M 146.5,29.5 C 150.026,29.9393 153.693,30.106 157.5,30C 161.525,33.1244 162.358,36.9577 160,41.5C 157.627,44.3022 154.793,44.9689 151.5,43.5C 150.534,45.396 150.201,47.396 150.5,49.5C 149.167,49.5 147.833,49.5 146.5,49.5C 146.5,42.8333 146.5,36.1667 146.5,29.5 Z M 151.5,33.5 C 156.241,33.1614 157.574,35.1614 155.5,39.5C 150.827,40.1283 149.494,38.1283 151.5,33.5 Z"/></g>
<g><path style="opacity:0.629" fill="#fefffe" d="M 162.5,29.5 C 166.167,29.5 169.833,29.5 173.5,29.5C 173.5,30.8333 173.5,32.1667 173.5,33.5C 171.5,33.5 169.5,33.5 167.5,33.5C 167.5,37.1667 167.5,40.8333 167.5,44.5C 165.856,44.7135 164.356,44.3802 163,43.5C 162.501,38.8452 162.334,34.1785 162.5,29.5 Z"/></g>
<g><path style="opacity:0.004" fill="#000000" d="M 64.5,34.5 C 65.8333,35.1667 65.8333,35.1667 64.5,34.5 Z"/></g>
<g><path style="opacity:1" fill="#162c4f" d="M 20.5,41.5 C 27.5316,41.1697 34.5316,41.503 41.5,42.5C 39.3274,45.1722 36.8274,47.5055 34,49.5C 28.9118,48.4665 23.7451,47.6332 18.5,47C 18.1667,46.6667 17.8333,46.3333 17.5,46C 18.2225,44.2495 19.2225,42.7495 20.5,41.5 Z"/></g>
</svg>
