
<svg xmlns="http://www.w3.org/2000/svg" version="1.1" xmlns:xlink="http://www.w3.org/1999/xlink" preserveAspectRatio="none" x="0px" y="0px" width="23px" height="23px" viewBox="0 0 23 23">
<defs>
<g id="Layer2_0_FILL">
<path fill="#4EB162" stroke="none" d="
M 0.4 3.65
Q 0.00625 3.846875 0 4.15
L 0 22.95 0.4 22.95 0.4 3.65
M 23.75 4.05
Q 23.74453125 3.7484375 23.4 3.65
L 23.4 22.95 23.75 22.95 23.75 4.05 Z"/>

<path fill="#56C46D" stroke="none" d="
M 9.65 1.1
Q 9.6419921875 0.75 9.1 0.75
L 2.85 0.75
Q 2.3 0.75 2.2 1
L 2.2 2.95 9.65 2.95 9.65 1.1
M 23.4 22.95
L 23.4 3.65 0.65 3.65
Q 0.45 3.65 0.4 3.65
L 0.4 22.95 23.4 22.95
M 11.85 8.1
Q 13.15 8.1 14.05 8.9 14.95 9.8 14.95 11 14.95 12.3 14.05 13.2 13.15 14.15 11.85 14.15 10.65 14.15 9.75 13.2 8.9 12.3 8.9 11 8.9 9.8 9.75 8.9 10.65 8.1 11.85 8.1
M 9.1 15.25
Q 9.2 15.15 9.45 15.15 9.75 15.25 10 15.5 10.85 16.6 11.4 16.6 11.95 16.8 12.5 16.6 13.2 16.6 13.95 15.3 14.25 14.95 14.8 15.15 14.85 15.15 14.95 15.25 15.5 15.4 15.25 15.95
L 15.25 16.05
Q 15.35 16.5 15.15 17.05 14.3 18.35 12.95 18.8 11.95 19.1 10.85 18.8 10.3 18.55 9.65 18.1
L 8.8 17.35
Q 8.55 16.9 8.65 16.15 8.55 15.85 8.55 15.8 8.65 15.7 8.65 15.6 8.75 15.3 9.1 15.25
M 21.55 1.1
Q 21.5419921875 0.75 21 0.75
L 14.8 0.75
Q 14.25 0.75 14.15 1
L 14.15 2.95 21.55 2.95 21.55 1.1 Z"/>

<path fill="#71D987" stroke="none" d="
M 9.1 0.75
Q 9.6419921875 0.75 9.65 1.1
L 9.65 0.45
Q 9.75 0 9.3 0
L 2.75 0
Q 2.2 0 2.2 0.45
L 2.2 1
Q 2.3 0.75 2.85 0.75
L 9.1 0.75
M 8.9 16.6
Q 8.8 16.5 8.8 16.45 8.65 16.35 8.65 16.15 8.55 16.9 8.8 17.35
L 9.65 18.1
Q 10.3 18.55 10.85 18.8 11.95 19.1 12.95 18.8 14.3 18.35 15.15 17.05 15.35 16.5 15.25 16.05 15.25 16.15 15.15 16.15 14.4 17.55 12.95 18.1 11.95 18.25 10.85 18.1 10.3 17.8 9.65 17.35
L 8.9 16.6
M 23.75 4.05
L 23.75 3.4
Q 23.75 2.95 23.3 2.95
L 21.55 2.95 14.15 2.95 9.65 2.95 2.2 2.95 0.65 2.95
Q 0.45 2.95 0.4 2.95 0 3.05 0 3.4
L 0 4.15
Q 0.00625 3.846875 0.4 3.65 0.45 3.65 0.65 3.65
L 23.4 3.65
Q 23.74453125 3.7484375 23.75 4.05
M 21 0.75
Q 21.5419921875 0.75 21.55 1.1
L 21.55 0.45
Q 21.55 0 21.1 0
L 14.6 0
Q 14.15 0 14.15 0.45
L 14.15 1
Q 14.25 0.75 14.8 0.75
L 21 0.75 Z"/>

<path fill="#3D9F51" stroke="none" d="
M 9.45 15.15
Q 9.2 15.15 9.1 15.25 8.75 15.3 8.65 15.6 8.65 15.7 8.55 15.8 8.55 15.85 8.65 16.15 8.65 16.35 8.8 16.45 8.8 16.5 8.9 16.6
L 9.65 17.35
Q 10.3 17.8 10.85 18.1 11.95 18.25 12.95 18.1 14.4 17.55 15.15 16.15 15.25 16.15 15.25 16.05
L 15.25 15.95
Q 15.5 15.4 14.95 15.25 14.85 15.15 14.8 15.15 14.25 14.95 13.95 15.3 13.2 16.6 12.5 16.6 11.95 16.8 11.4 16.6 10.85 16.6 10 15.5 9.75 15.25 9.45 15.15
M 11.95 9.25
Q 11.2 9.25 10.65 9.8 10.1 10.35 10.1 11.1 10.1 11.85 10.65 12.4 11.2 12.95 11.95 12.95 12.65 12.95 13.2 12.4 13.75 11.85 13.75 11.1 13.75 10.35 13.2 9.8 12.65 9.25 11.95 9.25
M 23.75 23.75
L 23.75 22.95 23.4 22.95 0.4 22.95 0 22.95 0 23.75 23.75 23.75 Z"/>

<path fill="#FFFFFF" stroke="none" d="
M 14.05 8.9
Q 13.15 8.1 11.85 8.1 10.65 8.1 9.75 8.9 8.9 9.8 8.9 11 8.9 12.3 9.75 13.2 10.65 14.15 11.85 14.15 13.15 14.15 14.05 13.2 14.95 12.3 14.95 11 14.95 9.8 14.05 8.9
M 10.65 9.8
Q 11.2 9.25 11.95 9.25 12.65 9.25 13.2 9.8 13.75 10.35 13.75 11.1 13.75 11.85 13.2 12.4 12.65 12.95 11.95 12.95 11.2 12.95 10.65 12.4 10.1 11.85 10.1 11.1 10.1 10.35 10.65 9.8 Z"/>
</g>
</defs>

<g transform="matrix( 1, 0, 0, 1, 0,0) ">
<use xlink:href="#Layer2_0_FILL"/>
</g>
</svg>
